<?xml version="1.0" encoding="utf-8"?>
<!-- Generator: Adobe Illustrator 26.0.1, SVG Export Plug-In . SVG Version: 6.00 Build 0)  -->
<svg version="1.1" id="圖層_1" xmlns="http://www.w3.org/2000/svg" xmlns:xlink="http://www.w3.org/1999/xlink" x="0px" y="0px"
	 viewBox="0 0 324.24 124.24" style="enable-background:new 0 0 324.24 124.24;" xml:space="preserve">
<style type="text/css">
	.st0{fill:#4822E0;}
</style>
<g>
	<path class="st0" d="M301.01,100.37l-8.6-1.38l-8.62-1.23c-87.3-12.08-174.97-11.2-260.57,2.61c-0.27,0.04-0.45,0.29-0.42,0.56
		c0.04,0.27,0.28,0.46,0.55,0.43c90.14-10.01,186.11-10.01,277.52,0c0.02,0,0.04,0,0.06,0c0.25,0,0.46-0.18,0.49-0.43
		C301.47,100.66,301.28,100.41,301.01,100.37z"/>
	<path class="st0" d="M78.82,68.81c2.45,1.44,5.25,2.17,8.32,2.17c2.88,0,5.45-0.64,7.63-1.89c1.55-0.9,3.03-2.08,4.38-3.52
		c0.17-0.18,0.18-0.47,0.02-0.66c-0.16-0.19-0.45-0.24-0.66-0.1c-0.71,0.46-1.45,0.86-2.21,1.17c-1.5,0.62-3.09,0.94-4.71,0.94
		c-3.19,0-5.94-0.99-8.16-2.95c-2.2-1.94-3.85-4.35-4.91-7.19c-0.63-1.67-1.07-3.36-1.33-5.02l-0.16-1.02l-0.07-1.04
		c-0.03-0.45-0.04-0.9-0.04-1.35c0-2.31,0.34-4.39,1-6.19c0.67-1.82,1.63-3.26,2.87-4.27c0.24-0.2,0.5-0.38,0.75-0.54
		c0.23-0.14,0.31-0.44,0.17-0.67c-0.13-0.23-0.42-0.32-0.66-0.2c-0.52,0.27-1.03,0.57-1.52,0.9c-2.6,1.74-4.7,4.09-6.24,6.99
		c-1.54,2.9-2.32,6.11-2.32,9.56c0,3.31,0.7,6.29,2.07,8.86C74.43,65.35,76.37,67.38,78.82,68.81z"/>
	<path class="st0" d="M89.93,51.29h6.4c1.12,0,2.02-0.09,2.68-0.26c0.61-0.16,1.1-0.53,1.51-1.13c0.42-0.61,0.62-1.57,0.62-2.94
		c0-2.19-0.53-4.23-1.58-6.06c-1.05-1.83-2.57-3.33-4.52-4.44c-1.95-1.12-4.23-1.69-6.79-1.69c-1.83,0-3.59,0.29-5.24,0.87
		c-0.25,0.09-0.39,0.36-0.31,0.62c0.08,0.26,0.35,0.41,0.61,0.34c0.63-0.17,1.31-0.26,2.02-0.26c1.96,0,3.63,0.7,4.98,2.07
		c1.32,1.34,2.3,3.04,2.92,5.07c0.28,0.91,0.49,1.83,0.65,2.76C94.2,48.18,91.53,50.14,89.93,51.29L89.93,51.29z"/>
	<path class="st0" d="M163.1,51.29h6.4c1.12,0,2.02-0.09,2.68-0.26c0.61-0.16,1.1-0.53,1.51-1.13c0.42-0.61,0.62-1.57,0.62-2.94
		c0-2.19-0.53-4.23-1.58-6.06c-1.05-1.83-2.57-3.33-4.52-4.44c-1.95-1.12-4.23-1.69-6.79-1.69c-1.83,0-3.59,0.29-5.24,0.87
		c-0.25,0.09-0.39,0.36-0.31,0.62c0.08,0.26,0.35,0.41,0.61,0.34c0.63-0.17,1.31-0.26,2.02-0.26c1.96,0,3.63,0.7,4.98,2.07
		c1.32,1.34,2.3,3.04,2.92,5.07c0.28,0.91,0.49,1.83,0.65,2.76C167.37,48.18,164.71,50.14,163.1,51.29L163.1,51.29z"/>
	<path class="st0" d="M126.28,67.51c0.06,0.02,0.11,0.03,0.17,0.03c0.2,0,0.38-0.12,0.46-0.31l12.74-30.88
		c0.06-0.15,0.05-0.33-0.05-0.47c-0.09-0.14-0.25-0.22-0.41-0.22l-5.41-0.06c-0.74,0-1.37,0.24-1.9,0.7
		c-0.57,0.51-0.84,1.22-0.84,2.2c-0.42,5.66-1.12,11.1-2.09,16.19c-0.78,4.08-1.78,8.19-2.99,12.2
		C125.9,67.15,126.03,67.42,126.28,67.51z"/>
	<path class="st0" d="M117.52,67.63l3.44,8.51c0.2,0.49,0.14,1.05-0.16,1.5c-0.27,0.4-0.68,0.63-1.13,0.63c-0.04,0-0.08,0-0.13-0.01
		c-0.61-0.06-1.38-0.21-2.21-0.38c-1.12-0.23-2.27-0.46-3.15-0.46c-0.1,0-0.19,0-0.28,0.01c-1.05,0.04-1.85,0.33-2.38,0.86
		c-0.51,0.51-0.68,1.26-0.51,2.29c0,0,0,0,0,0l0.7,4.26c0.04,0.24,0.25,0.42,0.49,0.42c0.02,0,0.04,0,0.06,0
		c2.39-0.29,4.57-1.31,6.47-3.03c1.92-1.74,3.65-4.32,5.15-7.69c0.17-0.37,0.33-0.75,0.49-1.14l0.89-2.16
		c0.05-0.11,0.05-0.24,0.01-0.35l-11.98-34.87c-0.07-0.2-0.26-0.34-0.47-0.34h-5.81c-0.16,0-0.31,0.08-0.41,0.21
		s-0.12,0.3-0.06,0.45L117.52,67.63z"/>
	<path class="st0" d="M151.99,68.81c2.45,1.44,5.25,2.17,8.32,2.17c2.88,0,5.45-0.64,7.63-1.89c1.55-0.9,3.03-2.08,4.38-3.52
		c0.17-0.18,0.18-0.47,0.02-0.66c-0.16-0.19-0.44-0.23-0.66-0.1c-0.71,0.46-1.45,0.86-2.21,1.17c-1.5,0.62-3.09,0.94-4.71,0.94
		c-3.19,0-5.94-0.99-8.16-2.95c-2.2-1.94-3.85-4.35-4.91-7.19c-0.63-1.67-1.07-3.36-1.33-5.02l-0.16-1.02l-0.07-1.04
		c-0.03-0.45-0.04-0.9-0.04-1.35c0-2.31,0.34-4.39,1-6.19c0.67-1.82,1.63-3.26,2.87-4.27c0.24-0.2,0.5-0.38,0.75-0.54
		c0.23-0.14,0.31-0.44,0.17-0.67c-0.13-0.23-0.42-0.32-0.66-0.2c-0.52,0.27-1.03,0.57-1.52,0.9c-2.6,1.74-4.7,4.09-6.24,6.99
		c-1.54,2.9-2.32,6.11-2.32,9.56c0,3.31,0.7,6.29,2.07,8.86C147.6,65.35,149.54,67.38,151.99,68.81z"/>
	<path class="st0" d="M156.49,36.59c0.63-0.17,1.31-0.26,2.02-0.26c1.96,0,3.63,0.7,4.98,2.07c1.32,1.34,2.3,3.04,2.92,5.07
		c0.61,2.01,0.92,4.06,0.92,6.09l-0.04,1.22c0,0.14,0.05,0.27,0.14,0.36c0.09,0.1,0.22,0.15,0.36,0.15h1.72
		c1.12,0,2.02-0.09,2.68-0.26c0.61-0.16,1.1-0.53,1.51-1.13c0.42-0.61,0.62-1.57,0.62-2.94c0-2.19-0.53-4.23-1.58-6.06
		c-1.05-1.83-2.57-3.33-4.51-4.44c-1.95-1.12-4.23-1.69-6.8-1.69c-1.83,0-3.59,0.29-5.24,0.87c-0.25,0.09-0.39,0.36-0.31,0.62
		C155.96,36.51,156.23,36.66,156.49,36.59z"/>
	<path class="st0" d="M199.37,41.82c0.75,0,1.54,0.05,2.33,0.14c0.11,0.01,0.22,0.02,0.32,0.02c0.44,0,0.81-0.12,1.1-0.35
		c0.33-0.26,0.49-0.7,0.49-1.35v-4.7c-2.15,0.19-4.25,1.07-6.24,2.62c-1.68,1.31-3.34,3.04-4.95,5.14c0.69-0.35,1.42-0.64,2.19-0.87
		C196.12,42.04,197.71,41.82,199.37,41.82z"/>
	<path class="st0" d="M183.98,69.58c0,0.28,0.22,0.5,0.5,0.5h5.65c0.28,0,0.5-0.22,0.5-0.5l0.01-24.41
		c0.02-0.07,0.03-0.14,0.02-0.22l-1.1-9.28c-0.02-0.13-0.08-0.26-0.19-0.34c-0.11-0.08-0.24-0.12-0.38-0.1l-5.6,0.85
		c-0.27,0.04-0.45,0.28-0.42,0.55l1.02,9.07V69.58z"/>
	<path class="st0" d="M212.89,70.08h5.65c0.28,0,0.5-0.22,0.5-0.5V36.17c0-0.28-0.22-0.5-0.5-0.5h-5.65c-0.28,0-0.5,0.22-0.5,0.5
		v33.41C212.39,69.86,212.61,70.08,212.89,70.08z"/>
	<path class="st0" d="M215.61,28.8c0.98,0,1.77-0.29,2.41-0.9c0.64-0.6,0.97-1.32,1-2.16c0-0.81-0.29-1.47-0.89-2.01
		c-0.62-0.57-1.38-0.84-2.32-0.84c-1.01,0-1.81,0.3-2.43,0.92c-0.62,0.62-0.92,1.35-0.92,2.26c-0.03,0.83,0.23,1.47,0.8,1.95
		C213.89,28.54,214.66,28.8,215.61,28.8z"/>
	<path class="st0" d="M233.98,38.07c2.49-1.23,5.83-1.01,9.4,1.06c2.07,1.2,4.27,3.15,6.52,5.77c0.25,0.33,0.66,0.76,1.32,0.78
		c0.01,0,0.01,0,0.02,0c0.43,0,0.78-0.16,1.07-0.49c0.41-0.46,0.36-1.02,0.29-1.38l-1.05-6.52c-0.02-0.14-0.1-0.26-0.22-0.34
		c-0.87-0.57-2.1-1.07-3.66-1.49c-1.76-0.48-3.55-0.72-5.32-0.72c-3.17,0-6.15,0.82-8.84,2.43c-0.23,0.14-0.31,0.43-0.18,0.67
		C233.45,38.1,233.75,38.19,233.98,38.07z"/>
	<path class="st0" d="M232.18,68.81c2.48,1.44,5.33,2.17,8.5,2.17c2.88,0,5.3-0.62,7.19-1.85c1.45-0.94,2.92-2.23,4.37-3.84
		c0.17-0.18,0.17-0.46,0.02-0.65c-0.16-0.19-0.43-0.24-0.64-0.11c-0.65,0.38-1.34,0.71-2.06,1c-1.41,0.55-2.92,0.83-4.5,0.83
		c-2.96,0-5.69-0.99-8.12-2.94c-2.4-1.93-4.3-4.42-5.65-7.39c-1.34-2.96-2.02-5.94-2.02-8.86c0-1.81,0.32-3.48,0.94-4.96
		c0.5-1.19,1.21-2.21,2.1-3.01c0.2-0.18,0.22-0.49,0.05-0.69c-0.17-0.21-0.48-0.24-0.69-0.07c-2.01,1.56-3.67,3.53-4.94,5.86
		c-1.61,2.94-2.42,6.2-2.42,9.69c0,3.22,0.7,6.16,2.08,8.75C227.76,65.33,229.71,67.38,232.18,68.81z"/>
</g>
</svg>
