<?xml version="1.0" encoding="utf-8"?>
<!-- Generator: Adobe Illustrator 27.7.0, SVG Export Plug-In . SVG Version: 6.00 Build 0)  -->
<svg version="1.1" id="圖層_1" xmlns="http://www.w3.org/2000/svg" xmlns:xlink="http://www.w3.org/1999/xlink" x="0px" y="0px"
	 viewBox="0 0 324.2 124.2" style="enable-background:new 0 0 324.2 124.2;" xml:space="preserve">
<style type="text/css">
	.st0{fill:#0D6EFD;}
</style>
<g>
	<path class="st0" d="M301,100.4l-8.6-1.4l-8.6-1.2c-87.3-12.1-175-11.2-260.6,2.6c-0.3,0-0.5,0.3-0.4,0.6c0,0.3,0.3,0.5,0.5,0.4
		c90.1-10,186.1-10,277.5,0c0,0,0,0,0.1,0c0.2,0,0.5-0.2,0.5-0.4C301.5,100.7,301.3,100.4,301,100.4z"/>
	<g>
		<path class="st0" d="M83.3,54.8c0,0.8,0.1,1.6,0.3,2.5c0.2,0.9,0.5,1.8,1,2.7s0.9,1.8,1.6,2.6c0.6,0.8,1.3,1.5,2.2,2.2
			c0.8,0.6,1.7,1.1,2.7,1.5c1,0.4,2.1,0.6,3.3,0.6c0.8,0,1.6-0.1,2.3-0.3c0.7-0.2,1.4-0.4,2-0.8c0.6-0.3,1.2-0.7,1.8-1.2
			c0.6-0.4,1.1-0.9,1.7-1.4l0.9,0.8c-0.5,0.7-1.2,1.5-2.1,2.4c-0.8,0.9-1.9,1.7-3.1,2.5s-2.6,1.4-4.2,1.9c-1.6,0.5-3.4,0.8-5.5,0.8
			s-4.1-0.4-6-1.1c-1.9-0.7-3.7-1.9-5.2-3.3c-1.5-1.5-2.7-3.3-3.6-5.6c-0.9-2.2-1.4-4.8-1.4-7.8c0-2.1,0.3-4.1,0.8-5.9
			c0.5-1.8,1.3-3.4,2.2-4.8c0.9-1.4,2-2.7,3.3-3.8c1.2-1.1,2.5-2,3.9-2.7c1.4-0.7,2.8-1.3,4.2-1.6c1.4-0.4,2.8-0.5,4.1-0.5
			c1.7,0,3.3,0.2,4.6,0.6s2.4,0.9,3.2,1.5c0.9,0.6,1.5,1.4,1.9,2.2c0.4,0.8,0.6,1.7,0.6,2.6c0,1.1-0.3,2.1-1,3
			c-0.6,0.9-1.5,1.7-2.5,2.3L83.3,54.8z M90.4,47.6c0.3-0.2,0.6-0.4,0.8-0.5c0.2-0.2,0.4-0.4,0.5-0.6c0.1-0.2,0.2-0.6,0.3-0.9
			c0.1-0.4,0.1-0.8,0.1-1.4c0-0.6-0.1-1.2-0.2-2c-0.1-0.7-0.3-1.4-0.7-2s-0.7-1.2-1.2-1.6c-0.5-0.4-1-0.6-1.7-0.6
			c-0.8,0-1.6,0.3-2.2,0.8c-0.6,0.5-1.1,1.2-1.5,2c-0.4,0.8-0.7,1.7-0.9,2.7c-0.2,1-0.4,2.1-0.5,3.1c-0.1,1-0.2,2-0.2,3
			c0,1,0,1.8,0,2.4L90.4,47.6z"/>
		<path class="st0" d="M135.9,39.8c0,4.3-0.4,8.5-1.3,12.5c-0.8,4-2,7.8-3.5,11.3c-1.5,3.5-3.2,6.8-5.3,9.7c-2,2.9-4.2,5.4-6.6,7.5
			c-2.4,2.1-4.9,3.7-7.6,4.8c-2.7,1.2-5.3,1.7-8.1,1.7c-2.1,0-3.7-0.3-4.8-1s-1.7-1.6-1.7-2.8c0-0.4,0.1-0.9,0.2-1.3
			s0.3-0.8,0.6-1.1c0.2-0.3,0.5-0.6,0.8-0.8c0.3-0.2,0.7-0.3,1.1-0.3c0.4,0,0.8,0.2,1.1,0.7c0.3,0.4,0.6,0.9,0.9,1.5
			c0.3,0.5,0.7,1,1.2,1.5c0.5,0.4,1.1,0.7,1.9,0.7c1.1,0,2.2-0.2,3.3-0.5c1.2-0.4,2.3-0.9,3.5-1.6c1.2-0.7,2.3-1.5,3.5-2.5
			c1.2-1,2.3-2.1,3.5-3.3c-0.7-2.4-1.4-5-2.3-7.8c-0.9-2.8-1.8-5.7-2.7-8.5c-1-2.9-1.9-5.6-2.9-8.3c-1-2.7-2-5-2.9-7.1
			s-1.9-3.7-2.8-4.9c-0.9-1.2-1.7-1.9-2.4-1.9c-0.4,0-0.8,0.1-1,0.2c-0.2,0.1-0.5,0.3-0.9,0.6l-0.7-0.9c0.5-0.4,1-0.8,1.5-1.2
			c0.5-0.4,1.1-0.8,1.8-1.2s1.5-0.6,2.5-0.9c0.9-0.2,2.1-0.3,3.4-0.3c1.4,0,2.8,0.3,4,1c1.2,0.6,2.4,1.8,3.4,3.6
			c0.7,1.3,1.5,2.9,2.3,4.7c0.8,1.8,1.6,3.8,2.4,6.1c0.8,2.2,1.6,4.7,2.4,7.3c0.8,2.6,1.6,5.3,2.5,8.2c1.5-3.1,2.6-6.3,3.5-9.8
			c0.9-3.4,1.3-7,1.3-10.6c0-1.3-0.1-2.4-0.2-3.3c-0.2-0.9-0.4-1.7-0.6-2.4c-0.2-0.6-0.4-1.2-0.6-1.7c-0.2-0.5-0.2-0.9-0.2-1.2
			s0.1-0.7,0.4-0.9c0.3-0.2,0.6-0.4,1-0.6c0.4-0.1,0.8-0.2,1.2-0.3c0.4-0.1,0.8-0.1,1-0.1c0.6,0,1.1,0.1,1.5,0.4
			c0.3,0.3,0.6,0.6,0.8,1.1c0.2,0.5,0.3,1.1,0.3,1.8C135.9,38.2,135.9,39,135.9,39.8z"/>
		<path class="st0" d="M151.6,54.8c0,0.8,0.1,1.6,0.3,2.5c0.2,0.9,0.5,1.8,1,2.7s0.9,1.8,1.6,2.6c0.6,0.8,1.3,1.5,2.2,2.2
			c0.8,0.6,1.7,1.1,2.7,1.5c1,0.4,2.1,0.6,3.3,0.6c0.8,0,1.6-0.1,2.3-0.3c0.7-0.2,1.4-0.4,2-0.8c0.6-0.3,1.2-0.7,1.8-1.2
			c0.6-0.4,1.1-0.9,1.7-1.4l0.9,0.8c-0.5,0.7-1.2,1.5-2.1,2.4c-0.8,0.9-1.9,1.7-3.1,2.5c-1.2,0.8-2.6,1.4-4.2,1.9
			c-1.6,0.5-3.4,0.8-5.5,0.8s-4.1-0.4-6-1.1c-1.9-0.7-3.7-1.9-5.2-3.3c-1.5-1.5-2.7-3.3-3.6-5.6c-0.9-2.2-1.4-4.8-1.4-7.8
			c0-2.1,0.3-4.1,0.8-5.9c0.5-1.8,1.3-3.4,2.2-4.8c0.9-1.4,2-2.7,3.3-3.8c1.2-1.1,2.5-2,3.9-2.7c1.4-0.7,2.8-1.3,4.2-1.6
			c1.4-0.4,2.8-0.5,4.1-0.5c1.7,0,3.3,0.2,4.6,0.6c1.3,0.4,2.4,0.9,3.2,1.5s1.5,1.4,1.9,2.2c0.4,0.8,0.6,1.7,0.6,2.6
			c0,1.1-0.3,2.1-1,3c-0.6,0.9-1.5,1.7-2.5,2.3L151.6,54.8z M158.8,47.6c0.3-0.2,0.6-0.4,0.8-0.5c0.2-0.2,0.4-0.4,0.5-0.6
			c0.1-0.2,0.2-0.6,0.3-0.9c0.1-0.4,0.1-0.8,0.1-1.4c0-0.6-0.1-1.2-0.2-2c-0.1-0.7-0.3-1.4-0.7-2c-0.3-0.6-0.7-1.2-1.2-1.6
			c-0.5-0.4-1-0.6-1.7-0.6c-0.8,0-1.6,0.3-2.2,0.8c-0.6,0.5-1.1,1.2-1.5,2c-0.4,0.8-0.7,1.7-0.9,2.7c-0.2,1-0.4,2.1-0.5,3.1
			c-0.1,1-0.2,2-0.2,3c0,1,0,1.8,0,2.4L158.8,47.6z"/>
		<path class="st0" d="M187.4,41.7c0.9-1.4,1.9-2.6,2.9-3.7c0.4-0.5,0.9-0.9,1.4-1.4c0.5-0.4,1-0.8,1.5-1.2c0.5-0.4,1.1-0.6,1.6-0.8
			s1.1-0.3,1.7-0.3c1.2,0,2.1,0.4,2.8,1.1c0.7,0.7,1,1.7,1,3c0,0.8-0.1,1.6-0.2,2.3c-0.1,0.7-0.4,1.6-0.8,2.7h-1
			c-0.1-0.7-0.5-1.3-1-1.8c-0.5-0.5-1.3-0.7-2.3-0.7c-0.7,0-1.5,0.1-2.2,0.4c-0.7,0.3-1.4,0.6-2.1,1c-0.7,0.4-1.3,0.8-1.9,1.3
			c-0.6,0.5-1.2,0.9-1.6,1.3v23c0,0.3,0,0.7-0.1,1.1c-0.1,0.4-0.3,0.8-0.7,1.2c-0.4,0.4-0.9,0.7-1.6,1c-0.7,0.3-1.7,0.4-3,0.4
			c-1.3,0-2.2-0.1-3-0.4c-0.7-0.3-1.3-0.6-1.6-1c-0.4-0.4-0.6-0.8-0.7-1.2c-0.1-0.4-0.1-0.8-0.1-1V40.5c0-0.7-0.2-1.3-0.5-1.8
			c-0.3-0.5-0.9-0.8-1.6-0.8c-0.4,0-0.7,0.1-1,0.2s-0.6,0.3-0.9,0.6l-0.7-0.9c0.5-0.4,1.2-0.9,1.8-1.3c0.7-0.4,1.4-0.8,2.2-1.2
			c0.8-0.3,1.6-0.6,2.5-0.8s1.8-0.3,2.8-0.3c1,0,1.9,0.1,2.6,0.4c0.7,0.3,1.3,0.6,1.8,1.1c0.5,0.4,0.8,0.9,1.1,1.5
			c0.3,0.5,0.5,1.1,0.6,1.6c0.1,0.6,0.2,1.1,0.2,1.6C187.3,40.9,187.4,41.4,187.4,41.7z"/>
		<path class="st0" d="M216.1,67.8c0,0.3-0.1,0.7-0.2,1.1c-0.1,0.4-0.4,0.8-0.7,1.2c-0.4,0.4-1,0.7-1.7,1c-0.7,0.3-1.7,0.4-3,0.4
			c-1.3,0-2.2-0.1-2.9-0.4s-1.2-0.6-1.6-1c-0.4-0.4-0.6-0.8-0.7-1.2c-0.1-0.4-0.1-0.8-0.1-1V40.5c0-0.7-0.2-1.3-0.5-1.8
			c-0.3-0.5-0.9-0.8-1.6-0.8c-0.4,0-0.7,0.1-1,0.2s-0.6,0.3-0.9,0.6l-0.7-0.9c0.5-0.4,1.2-0.9,1.8-1.3c0.7-0.4,1.4-0.8,2.2-1.2
			c0.8-0.3,1.6-0.6,2.5-0.8s1.8-0.3,2.8-0.3c1.5,0,2.7,0.2,3.6,0.6c0.8,0.4,1.5,0.9,1.9,1.5c0.4,0.6,0.6,1.2,0.7,1.9
			c0.1,0.7,0.1,1.3,0.1,1.8V67.8z M204.2,26.2c0-0.7,0.1-1.3,0.4-1.9c0.3-0.6,0.7-1.1,1.2-1.6c0.5-0.4,1.1-0.8,1.8-1.1
			c0.7-0.3,1.5-0.4,2.3-0.4c0.8,0,1.6,0.1,2.2,0.4c0.7,0.3,1.3,0.6,1.8,1.1c0.5,0.4,0.9,1,1.2,1.6c0.3,0.6,0.4,1.2,0.4,1.9
			c0,0.7-0.1,1.3-0.4,1.9c-0.3,0.6-0.7,1.1-1.2,1.5c-0.5,0.4-1.1,0.8-1.8,1c-0.7,0.3-1.4,0.4-2.2,0.4c-0.8,0-1.6-0.1-2.3-0.4
			c-0.7-0.3-1.3-0.6-1.8-1c-0.5-0.4-0.9-0.9-1.2-1.5C204.3,27.5,204.2,26.9,204.2,26.2z"/>
		<path class="st0" d="M247.5,46.5c-0.7,0-1.3-0.1-1.8-0.3c-0.5-0.2-0.9-0.5-1.2-0.9s-0.5-0.8-0.7-1.3c-0.1-0.5-0.2-0.9-0.2-1.4
			c0-0.6,0-1.3,0.1-1.8c0.1-0.6,0.1-1.1,0-1.6c-0.1-0.5-0.2-0.8-0.5-1.1s-0.8-0.4-1.6-0.4c-0.8,0-1.7,0.2-2.6,0.7
			c-0.9,0.5-1.8,1.2-2.5,2.2c-0.8,1-1.4,2.3-1.9,3.9c-0.5,1.6-0.7,3.5-0.7,5.8c0,2.5,0.2,4.7,0.7,6.8c0.5,2,1.2,3.8,2.1,5.2
			c0.9,1.4,2.1,2.6,3.4,3.3c1.4,0.8,3,1.2,4.8,1.2c0.8,0,1.6-0.1,2.4-0.3c0.7-0.2,1.4-0.4,2.1-0.8c0.7-0.3,1.3-0.7,1.9-1.2
			c0.6-0.4,1.2-0.9,1.8-1.4l0.9,0.8c-0.5,0.7-1.2,1.5-2.1,2.4c-0.8,0.9-1.9,1.7-3.1,2.5c-1.2,0.8-2.6,1.4-4.2,1.9
			c-1.6,0.5-3.4,0.8-5.5,0.8c-2.1,0-4.1-0.4-6-1.2c-1.9-0.8-3.7-1.9-5.2-3.5c-1.5-1.5-2.7-3.3-3.6-5.5c-0.9-2.2-1.4-4.6-1.4-7.4
			c0-2.1,0.3-4.1,0.8-5.9c0.5-1.8,1.3-3.4,2.2-4.9c0.9-1.5,2-2.7,3.3-3.9c1.2-1.1,2.5-2,3.9-2.8c1.4-0.7,2.8-1.3,4.2-1.7
			s2.8-0.6,4.1-0.6c1.7,0,3.3,0.2,4.6,0.6c1.3,0.4,2.4,0.9,3.2,1.6s1.5,1.4,1.9,2.3c0.4,0.9,0.6,1.8,0.6,2.7c0,0.7-0.1,1.3-0.3,2
			c-0.2,0.6-0.4,1.2-0.8,1.6s-0.8,0.8-1.3,1.1C248.8,46.4,248.2,46.5,247.5,46.5z"/>
	</g>
</g>
</svg>
